HIERARCHY
ROOT Hips
{
  OFFSET 19.804 22.561 -253.934
  CHANNELS 6 Xposition Yposition Zposition Zrotation Xrotation Yrotation
  JOINT LeftUpLeg
  {
    OFFSET 6.969 -5.191 4.155
    CHANNELS 6 Xposition Yposition Zposition Zrotation Xrotation Yrotation
    JOINT LeftLeg
    {
      OFFSET -0.000 -45.246 0.000
      CHANNELS 6 Xposition Yposition Zposition Zrotation Xrotation Yrotation
      JOINT LeftFoot
      {
        OFFSET -0.000 -37.172 -0.000
        CHANNELS 6 Xposition Yposition Zposition Zrotation Xrotation Yrotation
        End Site
        {
          OFFSET 0.000 -7.821 4.516
        }
      }
    }
  }
  JOINT RightUpLeg
  {
    OFFSET -6.845 -5.086 4.756
    CHANNELS 6 Xposition Yposition Zposition Zrotation Xrotation Yrotation
    JOINT RightLeg
    {
      OFFSET 0.000 -44.800 0.000
      CHANNELS 6 Xposition Yposition Zposition Zrotation Xrotation Yrotation
      JOINT RightFoot
      {
        OFFSET -0.000 -37.037 -0.000
        CHANNELS 6 Xposition Yposition Zposition Zrotation Xrotation Yrotation
        End Site
        {
          OFFSET 0.000 -7.876 4.547
        }
      }
    }
  }
  JOINT Spine
  {
    OFFSET 0.000 4.982 -4.982
    CHANNELS 6 Xposition Yposition Zposition Zrotation Xrotation Yrotation
    JOINT LeftShoulder
    {
      OFFSET -0.000 31.836 0.000
      CHANNELS 6 Xposition Yposition Zposition Zrotation Xrotation Yrotation
      JOINT LeftArm
      {
        OFFSET 16.079 0.000 -0.000
        CHANNELS 6 Xposition Yposition Zposition Zrotation Xrotation Yrotation
        JOINT LeftForeArm
        {
          OFFSET 21.175 0.000 0.000
          CHANNELS 6 Xposition Yposition Zposition Zrotation Xrotation Yrotation
          JOINT LeftHand
          {
            OFFSET 24.112 -0.000 -0.000
            CHANNELS 6 Xposition Yposition Zposition Zrotation Xrotation Yrotation
            JOINT LeftHandThumb1
            {
            OFFSET 4.970 -0.620 3.390
            CHANNELS 6 Xposition Yposition Zposition Zrotation Xrotation Yrotation
              JOINT LeftHandThumb2
              {
              OFFSET 2.150 -0.000 0.000
              CHANNELS 6 Xposition Yposition Zposition Zrotation Xrotation Yrotation
                JOINT LeftHandThumb3
                {
                OFFSET 2.200 -0.000 0.000
                CHANNELS 6 Xposition Yposition Zposition Zrotation Xrotation Yrotation
                  JOINT LeftHandThumb4
                  {
                  OFFSET 1.700 -0.000 0.000
                  CHANNELS 6 Xposition Yposition Zposition Zrotation Xrotation Yrotation
                  }
                }
              }
            }
            JOINT LeftHandIndex1
            {
            OFFSET 8.730 0.680 2.070
            CHANNELS 6 Xposition Yposition Zposition Zrotation Xrotation Yrotation
              JOINT LeftHandIndex2
              {
              OFFSET 2.670 -0.000 0.000
              CHANNELS 6 Xposition Yposition Zposition Zrotation Xrotation Yrotation
                JOINT LeftHandIndex3
                {
                OFFSET 2.130 -0.000 0.000
                CHANNELS 6 Xposition Yposition Zposition Zrotation Xrotation Yrotation
                  JOINT LeftHandIndex4
                  {
                  OFFSET 1.800 -0.000 0.000
                  CHANNELS 6 Xposition Yposition Zposition Zrotation Xrotation Yrotation
                  }
                }
              }
            }
            JOINT LeftHandMiddle1
            {
            OFFSET 9.220 0.670 0.550
            CHANNELS 6 Xposition Yposition Zposition Zrotation Xrotation Yrotation
              JOINT LeftHandMiddle2
              {
              OFFSET 2.660 -0.000 0.000
              CHANNELS 6 Xposition Yposition Zposition Zrotation Xrotation Yrotation
                JOINT LeftHandMiddle3
                {
                OFFSET 2.280 -0.000 0.000
                CHANNELS 6 Xposition Yposition Zposition Zrotation Xrotation Yrotation
                  JOINT LeftHandMiddle4
                  {
                  OFFSET 1.500 -0.000 0.000
                  CHANNELS 6 Xposition Yposition Zposition Zrotation Xrotation Yrotation
                  }
                }
              }
            }
            JOINT LeftHandRing1
            {
            OFFSET 9.250 0.670 -1.130
            CHANNELS 6 Xposition Yposition Zposition Zrotation Xrotation Yrotation
              JOINT LeftHandRing2
              {
              OFFSET 2.470 -0.000 0.000
              CHANNELS 6 Xposition Yposition Zposition Zrotation Xrotation Yrotation
                JOINT LeftHandRing3
                {
                OFFSET 2.210 -0.000 0.000
                CHANNELS 6 Xposition Yposition Zposition Zrotation Xrotation Yrotation
                  JOINT LeftHandRing4
                  {
                  OFFSET 1.800 -0.000 0.000
                  CHANNELS 6 Xposition Yposition Zposition Zrotation Xrotation Yrotation
                  }
                }
              }
            }
            JOINT LeftHandPinky1
            {
            OFFSET 9.350 0.660 -2.720
            CHANNELS 6 Xposition Yposition Zposition Zrotation Xrotation Yrotation
              JOINT LeftHandPinky2
              {
              OFFSET 1.630 -0.000 0.000
              CHANNELS 6 Xposition Yposition Zposition Zrotation Xrotation Yrotation
                JOINT LeftHandPinky3
                {
                OFFSET 1.710 -0.000 0.000
                CHANNELS 6 Xposition Yposition Zposition Zrotation Xrotation Yrotation
                  JOINT LeftHandPinky4
                  {
                  OFFSET 1.800 -0.000 0.000
                  CHANNELS 6 Xposition Yposition Zposition Zrotation Xrotation Yrotation
                  }
                }
              }
            }
          }
        }
      }
    }
    JOINT RightShoulder
    {
      OFFSET -0.000 31.836 0.000
      CHANNELS 6 Xposition Yposition Zposition Zrotation Xrotation Yrotation
      JOINT RightArm
      {
        OFFSET -17.283 0.000 -0.000
        CHANNELS 6 Xposition Yposition Zposition Zrotation Xrotation Yrotation
        JOINT RightForeArm
        {
          OFFSET -20.306 0.000 0.000
          CHANNELS 6 Xposition Yposition Zposition Zrotation Xrotation Yrotation
          JOINT RightHand
          {
            OFFSET -22.824 0.000 -0.000
            CHANNELS 6 Xposition Yposition Zposition Zrotation Xrotation Yrotation
            JOINT RightHandThumb1
            {
            OFFSET -4.970 -0.620 3.390
            CHANNELS 6 Xposition Yposition Zposition Zrotation Xrotation Yrotation
              JOINT RightHandThumb2
              {
              OFFSET -2.150 0.000 0.000
              CHANNELS 6 Xposition Yposition Zposition Zrotation Xrotation Yrotation
                JOINT RightHandThumb3
                {
                OFFSET -2.200 0.000 0.000
                CHANNELS 6 Xposition Yposition Zposition Zrotation Xrotation Yrotation
                  JOINT RightHandThumb4
                  {
                  OFFSET -1.700 0.000 0.000
                  CHANNELS 6 Xposition Yposition Zposition Zrotation Xrotation Yrotation
                  }
                }
              }
            }
            JOINT RightHandIndex1
            {
            OFFSET -8.730 0.680 2.070
            CHANNELS 6 Xposition Yposition Zposition Zrotation Xrotation Yrotation
              JOINT RightHandIndex2
              {
              OFFSET -2.670 0.000 0.000
              CHANNELS 6 Xposition Yposition Zposition Zrotation Xrotation Yrotation
                JOINT RightHandIndex3
                {
                OFFSET -2.130 0.000 0.000
                CHANNELS 6 Xposition Yposition Zposition Zrotation Xrotation Yrotation
                  JOINT RightHandIndex4
                  {
                  OFFSET -1.800 0.000 0.000
                  CHANNELS 6 Xposition Yposition Zposition Zrotation Xrotation Yrotation
                  }
                }
              }
            }
            JOINT RightHandMiddle1
            {
            OFFSET -9.220 0.670 0.550
            CHANNELS 6 Xposition Yposition Zposition Zrotation Xrotation Yrotation
              JOINT RightHandMiddle2
              {
              OFFSET -2.660 0.000 0.000
              CHANNELS 6 Xposition Yposition Zposition Zrotation Xrotation Yrotation
                JOINT RightHandMiddle3
                {
                OFFSET -2.280 0.000 0.000
                CHANNELS 6 Xposition Yposition Zposition Zrotation Xrotation Yrotation
                  JOINT RightHandMiddle4
                  {
                  OFFSET -1.500 0.000 0.000
                  CHANNELS 6 Xposition Yposition Zposition Zrotation Xrotation Yrotation
                  }
                }
              }
            }
            JOINT RightHandRing1
            {
            OFFSET -9.250 0.670 -1.130
            CHANNELS 6 Xposition Yposition Zposition Zrotation Xrotation Yrotation
              JOINT RightHandRing2
              {
              OFFSET -2.470 0.000 0.000
              CHANNELS 6 Xposition Yposition Zposition Zrotation Xrotation Yrotation
                JOINT RightHandRing3
                {
                OFFSET -2.210 0.000 0.000
                CHANNELS 6 Xposition Yposition Zposition Zrotation Xrotation Yrotation
                  JOINT RightHandRing4
                  {
                  OFFSET -1.800 0.000 0.000
                  CHANNELS 6 Xposition Yposition Zposition Zrotation Xrotation Yrotation
                  }
                }
              }
            }
            JOINT RightHandPinky1
            {
            OFFSET -9.350 0.660 -2.720
            CHANNELS 6 Xposition Yposition Zposition Zrotation Xrotation Yrotation
              JOINT RightHandPinky2
              {
              OFFSET -1.630 0.000 0.000
              CHANNELS 6 Xposition Yposition Zposition Zrotation Xrotation Yrotation
                JOINT RightHandPinky3
                {
                OFFSET -1.710 0.000 0.000
                CHANNELS 6 Xposition Yposition Zposition Zrotation Xrotation Yrotation
                  JOINT RightHandPinky4
                  {
                  OFFSET -1.800 0.000 0.000
                  CHANNELS 6 Xposition Yposition Zposition Zrotation Xrotation Yrotation
                  }
                }
              }
            }
          }
        }
      }
    }
    JOINT Neck
    {
      OFFSET -0.000 31.836 0.000
      CHANNELS 6 Xposition Yposition Zposition Zrotation Xrotation Yrotation
      JOINT Head
      {
        OFFSET -0.000 20.901 -0.000
        CHANNELS 6 Xposition Yposition Zposition Zrotation Xrotation Yrotation
        End Site
        {
          OFFSET -0.000 0.084 -0.000
        }
      }
    }
  }
}
MOTION
Frames:	5
Frame Time:	0.0333333
8.43005 19.2049 -251.992 -0.0482255 7.54168 -6.10153 7.0177 -6.53211 1.93667 -0.458691 -3.71704 -1.44326 7.45058e-06 -43.3351 0 0.115574 -1.82163 0.00367137 4.47035e-06 -32.2391 -2.38419e-05 7.06726 -3.80794 4.42684 -6.85627 -6.50964 1.59211 1.79317 -6.33222 -1.20663 2.98023e-06 -43.8822 4.76837e-05 -1.27755 5.90319 0.131415 -5.96046e-06 -32.506 0 2.04637 -37.614 2.11119 0 6.0764 -6.07638 0.322349 -6.74356 -0.626242 1.49012e-06 31.8366 2.38419e-05 -21.7181 1.17394e-05 0.591986 16.7647 1.49012e-05 -4.76837e-05 -48.6373 31.3718 -1.245 21.1037 3.57628e-05 -2.38419e-05 1.43016e-05 3.26863e-06 -112.198 25.8012 1.19209e-05 1.19209e-05 -1.4789 0.150387 7.85172 0.0062 0.0497 0.0339 0 0 0 0 0.0215 0 0 0 0 0 0.022 0 0 0 0 0 0.017 0 0 0 0 -0.0068 0.0873 0.0207 0 0 0 0 0.0267 0 0 0 0 0 0.0213 0 0 0 0 0 0.018 0 0 0 0 -0.0067 0.0922 0.0055 0 0 0 0 0.0266 0 0 0 0 0 0.0228 0 0 0 0 0 0.015 0 0 0 0 -0.0067 0.0925 -0.0113 0 0 0 0 0.0247 0 0 0 0 0 0.0221 0 0 0 0 0 0.018 0 0 0 0 -0.0066 0.0935 -0.0272 0 0 0 0 0.0163 0 0 0 0 0 0.0171 0 0 0 0 0 0.018 0 0 0 0 1.49012e-06 31.8366 2.38419e-05 21.4451 -2.66804e-06 -0.648122 -15.313 0 -4.76837e-05 54.9474 19.6129 -17.9176 -24.1674 0 0.000119209 2.19963e-06 1.70755e-06 33.0009 -24.7986 2.98023e-06 -2.38419e-05 6.93547 -0.0201733 -5.48115 -0.0062 0.0497 0.0339 0 0 0 0 0.0215 0 0 0 0 0 0.022 0 0 0 0 0 0.017 0 0 0 0 0.0068 0.0873 0.0207 0 0 0 0 0.0267 0 0 0 0 0 0.0213 0 0 0 0 0 0.018 0 0 0 0 0.0067 0.0922 0.0055 0 0 0 0 0.0266 0 0 0 0 0 0.0228 0 0 0 0 0 0.015 0 0 0 0 0.0067 0.0925 -0.0113 0 0 0 0 0.0247 0 0 0 0 0 0.0221 0 0 0 0 0 0.018 0 0 0 0 0.0066 0.0935 -0.0272 0 0 0 0 0.0163 0 0 0 0 0 0.0171 0 0 0 0 0 0.018 0 0 0 0 1.49012e-06 31.8366 2.38419e-05 0.617777 4.27964 -0.046103 -7.45058e-06 23.5111 -4.76837e-05 9.76504e-06 -1.02453e-05 2.13443e-06 
8.43005 19.2049 -251.992 -0.0482255 7.54168 -6.10153 7.0177 -6.53211 1.93667 -0.458691 -3.71704 -1.44326 7.45058e-06 -43.3351 0 0.115574 -1.82163 0.00367137 4.47035e-06 -32.2391 -2.38419e-05 7.06726 -3.80794 4.42684 -6.85627 -6.50964 1.59211 1.79317 -6.33222 -1.20663 2.98023e-06 -43.8822 4.76837e-05 -1.27755 5.90319 0.131415 -5.96046e-06 -32.506 0 2.04637 -37.614 2.11119 0 6.0764 -6.07638 0.322349 -6.74356 -0.626242 1.49012e-06 31.8366 2.38419e-05 -21.7181 1.17394e-05 0.591986 16.7647 1.49012e-05 -4.76837e-05 -48.6373 31.3718 -1.245 21.1037 3.57628e-05 -2.38419e-05 1.43016e-05 3.26863e-06 -112.198 25.8012 1.19209e-05 1.19209e-05 -1.4789 0.150387 7.85172 0.0062 0.0497 0.0339 0 0 0 0 0.0215 0 0 0 0 0 0.022 0 0 0 0 0 0.017 0 0 0 0 -0.0068 0.0873 0.0207 0 0 0 0 0.0267 0 0 0 0 0 0.0213 0 0 0 0 0 0.018 0 0 0 0 -0.0067 0.0922 0.0055 0 0 0 0 0.0266 0 0 0 0 0 0.0228 0 0 0 0 0 0.015 0 0 0 0 -0.0067 0.0925 -0.0113 0 0 0 0 0.0247 0 0 0 0 0 0.0221 0 0 0 0 0 0.018 0 0 0 0 -0.0066 0.0935 -0.0272 0 0 0 0 0.0163 0 0 0 0 0 0.0171 0 0 0 0 0 0.018 0 0 0 0 1.49012e-06 31.8366 2.38419e-05 21.4451 -2.66804e-06 -0.648122 -15.313 0 -4.76837e-05 54.9474 19.6129 -17.9176 -24.1674 0 0.000119209 2.19963e-06 1.70755e-06 33.0009 -24.7986 2.98023e-06 -2.38419e-05 6.93547 -0.0201733 -5.48115 -0.0062 0.0497 0.0339 0 0 0 0 0.0215 0 0 0 0 0 0.022 0 0 0 0 0 0.017 0 0 0 0 0.0068 0.0873 0.0207 0 0 0 0 0.0267 0 0 0 0 0 0.0213 0 0 0 0 0 0.018 0 0 0 0 0.0067 0.0922 0.0055 0 0 0 0 0.0266 0 0 0 0 0 0.0228 0 0 0 0 0 0.015 0 0 0 0 0.0067 0.0925 -0.0113 0 0 0 0 0.0247 0 0 0 0 0 0.0221 0 0 0 0 0 0.018 0 0 0 0 0.0066 0.0935 -0.0272 0 0 0 0 0.0163 0 0 0 0 0 0.0171 0 0 0 0 0 0.018 0 0 0 0 1.49012e-06 31.8366 2.38419e-05 0.617777 4.27964 -0.046103 -7.45058e-06 23.5111 -4.76837e-05 9.76504e-06 -1.02453e-05 2.13443e-06 
8.88473 18.9655 -252.38 0.0126247 8.73825 -7.71152 7.04506 -6.55175 2.04766 -0.00464582 -4.43495 -2.6805 2.98023e-06 -44.598 -2.38419e-05 -0.447004 -3.77316 -0.0294199 -5.96046e-06 -31.8015 -2.38419e-05 7.84791 -3.04207 4.84026 -6.91946 -6.5121 1.38886 2.18163 -11.889 -2.16271 2.98023e-06 -43.9872 0 -1.97302 12.2681 0.419399 -2.98023e-06 -32.4485 -4.76837e-05 4.07415 -32.4731 3.965 8.9407e-06 6.03256 -6.03247 0.28394 -7.12233 -0.585586 -2.98023e-06 31.8366 0 -21.9068 1.23797e-05 0.148058 16.8568 -8.9407e-06 0 -44.7512 30.4338 -6.43106 21.088 0 0 1.31046e-05 -3.05076e-06 -110.648 23.6693 1.19209e-05 1.19209e-05 -7.11561 0.0777982 0.837544 0.0062 0.0497 0.0339 0 0 0 0 0.0215 0 0 0 0 0 0.022 0 0 0 0 0 0.017 0 0 0 0 -0.0068 0.0873 0.0207 0 0 0 0 0.0267 0 0 0 0 0 0.0213 0 0 0 0 0 0.018 0 0 0 0 -0.0067 0.0922 0.0055 0 0 0 0 0.0266 0 0 0 0 0 0.0228 0 0 0 0 0 0.015 0 0 0 0 -0.0067 0.0925 -0.0113 0 0 0 0 0.0247 0 0 0 0 0 0.0221 0 0 0 0 0 0.018 0 0 0 0 -0.0066 0.0935 -0.0272 0 0 0 0 0.0163 0 0 0 0 0 0.0171 0 0 0 0 0 0.018 0 0 0 0 -2.98023e-06 31.8366 0 21.8879 -3.9487e-06 -0.162502 -15.3595 -1.78814e-05 2.38419e-05 55.1447 18.9925 -20.1062 -24.0313 1.49012e-05 0 6.50836e-06 8.53774e-07 36.0773 -24.26 -8.9407e-06 2.38419e-05 6.03841 0.000869299 -3.98571 -0.0062 0.0497 0.0339 0 0 0 0 0.0215 0 0 0 0 0 0.022 0 0 0 0 0 0.017 0 0 0 0 0.0068 0.0873 0.0207 0 0 0 0 0.0267 0 0 0 0 0 0.0213 0 0 0 0 0 0.018 0 0 0 0 0.0067 0.0922 0.0055 0 0 0 0 0.0266 0 0 0 0 0 0.0228 0 0 0 0 0 0.015 0 0 0 0 0.0067 0.0925 -0.0113 0 0 0 0 0.0247 0 0 0 0 0 0.0221 0 0 0 0 0 0.018 0 0 0 0 0.0066 0.0935 -0.0272 0 0 0 0 0.0163 0 0 0 0 0 0.0171 0 0 0 0 0 0.018 0 0 0 0 -2.98023e-06 31.8366 0 0.668784 3.75657 -0.0438185 -2.98023e-06 23.3904 0 1.00852e-05 -9.8184e-06 2.56132e-06 
8.88473 18.9655 -252.38 0.0126247 8.73825 -7.71152 7.04506 -6.55175 2.04766 -0.00464582 -4.43495 -2.6805 2.98023e-06 -44.598 -2.38419e-05 -0.447004 -3.77316 -0.0294199 -5.96046e-06 -31.8015 -2.38419e-05 7.84791 -3.04207 4.84026 -6.91946 -6.5121 1.38886 2.18163 -11.889 -2.16271 2.98023e-06 -43.9872 0 -1.97302 12.2681 0.419399 -2.98023e-06 -32.4485 -4.76837e-05 4.07415 -32.4731 3.965 8.9407e-06 6.03256 -6.03247 0.28394 -7.12233 -0.585586 -2.98023e-06 31.8366 0 -21.9068 1.23797e-05 0.148058 16.8568 -8.9407e-06 0 -44.7512 30.4338 -6.43106 21.088 0 0 1.31046e-05 -3.05076e-06 -110.648 23.6693 1.19209e-05 1.19209e-05 -7.11561 0.0777982 0.837544 0.0062 0.0497 0.0339 0 0 0 0 0.0215 0 0 0 0 0 0.022 0 0 0 0 0 0.017 0 0 0 0 -0.0068 0.0873 0.0207 0 0 0 0 0.0267 0 0 0 0 0 0.0213 0 0 0 0 0 0.018 0 0 0 0 -0.0067 0.0922 0.0055 0 0 0 0 0.0266 0 0 0 0 0 0.0228 0 0 0 0 0 0.015 0 0 0 0 -0.0067 0.0925 -0.0113 0 0 0 0 0.0247 0 0 0 0 0 0.0221 0 0 0 0 0 0.018 0 0 0 0 -0.0066 0.0935 -0.0272 0 0 0 0 0.0163 0 0 0 0 0 0.0171 0 0 0 0 0 0.018 0 0 0 0 -2.98023e-06 31.8366 0 21.8879 -3.9487e-06 -0.162502 -15.3595 -1.78814e-05 2.38419e-05 55.1447 18.9925 -20.1062 -24.0313 1.49012e-05 0 6.50836e-06 8.53774e-07 36.0773 -24.26 -8.9407e-06 2.38419e-05 6.03841 0.000869299 -3.98571 -0.0062 0.0497 0.0339 0 0 0 0 0.0215 0 0 0 0 0 0.022 0 0 0 0 0 0.017 0 0 0 0 0.0068 0.0873 0.0207 0 0 0 0 0.0267 0 0 0 0 0 0.0213 0 0 0 0 0 0.018 0 0 0 0 0.0067 0.0922 0.0055 0 0 0 0 0.0266 0 0 0 0 0 0.0228 0 0 0 0 0 0.015 0 0 0 0 0.0067 0.0925 -0.0113 0 0 0 0 0.0247 0 0 0 0 0 0.0221 0 0 0 0 0 0.018 0 0 0 0 0.0066 0.0935 -0.0272 0 0 0 0 0.0163 0 0 0 0 0 0.0171 0 0 0 0 0 0.018 0 0 0 0 -2.98023e-06 31.8366 0 0.668784 3.75657 -0.0438185 -2.98023e-06 23.3904 0 1.00852e-05 -9.8184e-06 2.56132e-06 
9.03502 18.8697 -252.611 0.110993 9.50554 -8.98279 7.06218 -6.54222 2.03271 0.376777 -5.04021 -2.41844 5.96046e-06 -45.1435 0 -0.880577 -4.73215 -0.0726494 -2.98023e-06 -31.7116 2.38419e-05 7.94043 -2.25968 4.80881 -6.92547 -6.50681 1.42837 2.50847 -14.8636 -1.85857 0 -44.3605 -4.76837e-05 -2.69102 15.9858 1.77623e-06 1.19209e-05 -33.6715 4.76837e-05 4.92838 -29.4505 4.62232 5.96046e-06 5.99353 -5.99349 0.338201 -7.49819 -0.701166 -2.98023e-06 31.8366 2.38419e-05 -22.3256 1.02453e-05 -0.344355 16.8475 -5.96046e-06 0 -42.7665 29.6738 -8.23969 21.194 -1.19209e-05 -4.76837e-05 -2.18007e-06 -1.23325e-05 -110.05 22.6938 0 -1.19209e-05 -8.10878 0.148504 -1.81329 0.0062 0.0497 0.0339 0 0 0 0 0.0215 0 0 0 0 0 0.022 0 0 0 0 0 0.017 0 0 0 0 -0.0068 0.0873 0.0207 0 0 0 0 0.0267 0 0 0 0 0 0.0213 0 0 0 0 0 0.018 0 0 0 0 -0.0067 0.0922 0.0055 0 0 0 0 0.0266 0 0 0 0 0 0.0228 0 0 0 0 0 0.015 0 0 0 0 -0.0067 0.0925 -0.0113 0 0 0 0 0.0247 0 0 0 0 0 0.0221 0 0 0 0 0 0.018 0 0 0 0 -0.0066 0.0935 -0.0272 0 0 0 0 0.0163 0 0 0 0 0 0.0171 0 0 0 0 0 0.018 0 0 0 0 -2.98023e-06 31.8366 2.38419e-05 21.7803 -2.13443e-07 0.376448 -15.4108 -5.96046e-06 -9.53674e-05 55.3777 18.7415 -21.6963 -23.943 2.98023e-06 2.38419e-05 1.15162e-07 5.97641e-06 38.8924 -24.3949 5.96046e-06 -4.76837e-05 6.04221 0.00201182 -3.78154 -0.0062 0.0497 0.0339 0 0 0 0 0.0215 0 0 0 0 0 0.022 0 0 0 0 0 0.017 0 0 0 0 0.0068 0.0873 0.0207 0 0 0 0 0.0267 0 0 0 0 0 0.0213 0 0 0 0 0 0.018 0 0 0 0 0.0067 0.0922 0.0055 0 0 0 0 0.0266 0 0 0 0 0 0.0228 0 0 0 0 0 0.015 0 0 0 0 0.0067 0.0925 -0.0113 0 0 0 0 0.0247 0 0 0 0 0 0.0221 0 0 0 0 0 0.018 0 0 0 0 0.0066 0.0935 -0.0272 0 0 0 0 0.0163 0 0 0 0 0 0.0171 0 0 0 0 0 0.018 0 0 0 0 -2.98023e-06 31.8366 2.38419e-05 0.826567 3.25267 -0.0468982 -2.98023e-06 23.2536 -7.15256e-05 1.00852e-05 -1.15259e-05 8.53773e-07 
